<?xml version="1.0" encoding="iso-8859-1"?>
<!-- Generator: Adobe Illustrator 19.0.0, SVG Export Plug-In . SVG Version: 6.00 Build 0)  -->
<svg version="1.1" id="Layer_1" xmlns="http://www.w3.org/2000/svg" xmlns:xlink="http://www.w3.org/1999/xlink" x="0px" y="0px"
	 viewBox="0 0 512.009 512.009" style="enable-background:new 0 0 512.009 512.009;" xml:space="preserve">
<circle style="fill:#F7B239;" cx="256.004" cy="256.004" r="256.004"/>
<g>
	<circle style="fill:#4D4D4D;" cx="142.672" cy="202.931" r="25.618"/>
	<circle style="fill:#4D4D4D;" cx="369.325" cy="202.931" r="25.618"/>
</g>
<path style="fill:#F95428;" d="M364.136,274.382H140.281c-9.653,0-17.204,8.499-15.864,18.059
	c1.129,8.048,2.998,15.859,5.539,23.362c8.679,25.632,25.189,47.633,46.684,63.182c21.242,15.384,47.355,24.443,75.568,24.443
	s54.326-9.059,75.568-24.443c21.495-15.549,38.005-37.55,46.684-63.182c2.54-7.504,4.41-15.315,5.539-23.362
	C381.338,282.88,373.788,274.382,364.136,274.382z"/>
<path style="fill:#F2F2F2;" d="M140.281,274.382h223.854c9.653,0,17.204,8.499,15.864,18.059
	c-1.129,8.048-2.998,15.859-5.539,23.362H129.956c-2.54-7.504-4.41-15.315-5.539-23.362
	C123.077,282.88,130.629,274.382,140.281,274.382z"/>
<path style="fill:#A81004;" d="M129.956,315.803H374.46c-8.679,25.632-25.189,47.633-46.684,63.182
	c-9.033-15.22-25.632-25.417-44.622-25.417c-11.601,0-22.305,3.808-30.946,10.248c-8.641-6.44-19.357-10.248-30.958-10.248
	c-18.977,0-35.589,10.197-44.609,25.417C155.145,363.436,138.635,341.435,129.956,315.803z"/>
<g>
</g>
<g>
</g>
<g>
</g>
<g>
</g>
<g>
</g>
<g>
</g>
<g>
</g>
<g>
</g>
<g>
</g>
<g>
</g>
<g>
</g>
<g>
</g>
<g>
</g>
<g>
</g>
<g>
</g>
</svg>
